<svg width="225" height="43" viewBox="0 0 225 43" fill="none" xmlns="http://www.w3.org/2000/svg">
<g clip-path="url(#clip0_0_6)">
<path d="M21.9898 21.6013H3.86388C4.00205 23.8338 4.76745 25.5779 6.16007 26.8336C7.55269 28.0893 9.24165 28.7135 11.2269 28.7062C12.8535 28.7062 14.2116 28.3274 15.3012 27.5699C16.3756 26.8297 17.1812 25.7613 17.5974 24.5247H21.6516C21.0771 26.6576 19.795 28.532 18.0155 29.8406C16.1975 31.2054 13.9364 31.8878 11.2324 31.8878C9.08105 31.8878 7.15757 31.403 5.46194 30.4333C3.76402 29.4701 2.37641 28.0421 1.46225 26.3173C0.492624 24.5356 0.0078125 22.4752 0.0078125 20.1359C0.0078125 17.7967 0.476867 15.7423 1.41498 13.9728C2.30612 12.2607 3.67963 10.8473 5.36558 9.90763C7.06242 8.9574 9.01318 8.48168 11.2179 8.48047C13.3692 8.48047 15.2721 8.94952 16.9265 9.88763C18.5406 10.7878 19.8649 12.1291 20.7444 13.7546C21.6573 15.465 22.1202 17.3793 22.0898 19.3178C22.0955 20.0802 22.0622 20.8423 21.9898 21.6013ZM17.2628 14.8382C16.6465 13.8179 15.7489 12.9973 14.6776 12.4747C13.5503 11.9275 12.3108 11.6511 11.0579 11.6675C9.15499 11.6675 7.53511 12.2735 6.19825 13.4855C4.86138 14.6976 4.09901 16.3774 3.91115 18.5252H18.2228C18.2228 17.1034 17.9028 15.8744 17.2628 14.8382Z" fill="white"/>
<path d="M38.8973 31.5277L33.514 23.0993L28.3453 31.5368H24.4238L31.7451 20.2795L24.4238 8.85311H28.6835L34.0595 17.2452L39.19 8.84766H43.1188L35.8466 20.0577L43.1678 31.5114L38.8973 31.5277Z" fill="white"/>
<path d="M53.9768 9.79833C55.4531 8.9293 57.1699 8.49479 59.1273 8.49479C61.0526 8.47346 62.9473 8.97622 64.6087 9.94923C66.2504 10.9162 67.5896 12.3222 68.4757 14.0089C69.4077 15.7591 69.8744 17.7929 69.8756 20.1103C69.8756 22.3998 69.4065 24.4402 68.4684 26.2316C67.5981 27.9575 66.2601 29.404 64.6071 30.406C62.9542 31.408 61.0528 31.9252 59.1201 31.8984C57.1893 31.8984 55.4864 31.4639 54.0114 30.5949C52.6273 29.8209 51.4649 28.7048 50.6353 27.3533V42.2867H46.8828V8.86022H50.648V13.0417C51.391 11.7473 52.5006 10.6661 53.9768 9.79833ZM64.9978 15.6452C64.3633 14.4329 63.394 13.4283 62.2053 12.7508C61.0278 12.0893 59.6979 11.7471 58.3474 11.7582C57.0074 11.7506 55.6896 12.1002 54.5295 12.7708C53.3368 13.4692 52.3627 14.4867 51.717 15.7088C51.0128 16.9911 50.6613 18.4728 50.6625 20.1539C50.6625 21.8641 51.014 23.3603 51.717 24.6426C52.3627 25.8647 53.3368 26.8822 54.5295 27.5806C55.7031 28.244 57.0283 28.5926 58.3765 28.5926C59.7246 28.5926 61.0498 28.244 62.2235 27.5806C63.4139 26.8857 64.3824 25.8668 65.016 24.6426C65.7056 23.3603 66.0504 21.8507 66.0504 20.1139C66.0504 18.4001 65.7026 16.9081 65.0069 15.6379L64.9978 15.6452Z" fill="white"/>
<path d="M95.4032 21.6005H77.2846C77.4228 23.8331 78.1882 25.5772 79.5808 26.8329C80.9734 28.0885 82.6624 28.7127 84.6477 28.7054C86.2754 28.7054 87.6335 28.3267 88.7219 27.5692C89.7963 26.8289 90.6019 25.7605 91.0181 24.524H95.0741C94.4996 26.6568 93.2176 28.5312 91.4381 29.8399C89.62 31.2047 87.3584 31.887 84.6531 31.887C82.503 31.887 80.5795 31.4022 78.8827 30.4326C77.192 29.475 75.8086 28.0563 74.8939 26.342C73.9243 24.5639 73.4395 22.5035 73.4395 20.1607C73.4395 17.8178 73.9085 15.7634 74.8466 13.9975C75.7369 12.2824 77.1104 10.8659 78.7972 9.92326C80.4941 8.97181 82.4448 8.49609 84.6495 8.49609C86.7996 8.49609 88.7025 8.96515 90.3582 9.90326C91.9707 10.8055 93.2944 12.1463 94.176 13.7702C95.0883 15.4807 95.5507 17.3951 95.5196 19.3334C95.519 20.0906 95.4801 20.8473 95.4032 21.6005ZM90.6872 14.8374C90.0709 13.8172 89.1732 12.9966 88.102 12.474C86.9747 11.9268 85.7352 11.6504 84.4822 11.6668C82.5806 11.6668 80.9607 12.2728 79.6226 13.4848C78.2845 14.6968 77.5197 16.3767 77.3282 18.5244H91.6362C91.6362 17.1027 91.3187 15.8737 90.6836 14.8374H90.6872Z" fill="white"/>
<path d="M107.09 9.52213C108.318 8.80946 109.814 8.45312 111.578 8.45312V12.3437H110.586C106.366 12.3437 104.256 14.6327 104.257 19.2105V31.5423H100.49V8.86037H104.255V12.5419C104.885 11.2803 105.871 10.2306 107.09 9.52213Z" fill="white"/>
<path d="M120.51 11.9623V25.3231C120.51 26.4273 120.745 27.2066 121.214 27.6611C121.683 28.1156 122.496 28.3429 123.654 28.3429H126.426V31.5281H123.034C120.937 31.5281 119.365 31.0433 118.318 30.0736C117.271 29.104 116.747 27.5181 116.747 25.3158V11.9587H113.816V8.85709H116.754V3.14844H120.518V8.85709H126.434V11.9587L120.51 11.9623Z" fill="white"/>
<path d="M139.518 9.28194C140.906 8.57407 142.447 8.2188 144.005 8.24747C145.878 8.22571 147.72 8.72959 149.321 9.70191C150.931 10.6925 152.235 12.1104 153.086 13.798C154.01 15.576 154.472 17.6364 154.472 19.9793C154.472 22.3221 154.01 24.3977 153.086 26.2061C152.241 27.9254 150.939 29.3789 149.323 30.4076C147.73 31.4022 145.885 31.9189 144.007 31.8966C142.298 31.8966 140.803 31.559 139.52 30.8839C138.297 30.2642 137.238 29.364 136.43 28.2568V31.5293H130.645V0.918945H136.446V11.9617C137.231 10.8262 138.287 9.90501 139.518 9.28194ZM147.7 16.4159C147.181 15.4591 146.408 14.6649 145.465 14.1216C144.552 13.6001 143.518 13.3286 142.467 13.3344C141.427 13.3321 140.405 13.611 139.509 14.1416C138.564 14.6989 137.789 15.5051 137.269 16.4723C136.684 17.5792 136.392 18.8181 136.422 20.0702C136.422 21.4507 136.705 22.65 137.269 23.6681C137.786 24.6382 138.56 25.4476 139.506 26.0079C140.409 26.5401 141.438 26.819 142.486 26.8155C143.534 26.812 144.562 26.5261 145.462 25.9879C146.405 25.4149 147.177 24.5986 147.696 23.6245C148.262 22.6052 148.544 21.3931 148.543 19.9884C148.543 18.6103 148.264 17.4177 147.705 16.4105L147.7 16.4159Z" fill="white"/>
<path d="M179.829 21.7972H163.07C163.208 23.4517 163.788 24.7473 164.808 25.6842C165.829 26.6211 167.083 27.0902 168.571 27.0914C170.724 27.0914 172.255 26.1672 173.164 24.3189H179.411C178.773 26.5017 177.44 28.4167 175.615 29.773C173.744 31.1947 171.442 31.9056 168.706 31.9056C166.499 31.9056 164.52 31.4159 162.77 30.4366C161.033 29.4745 159.611 28.0314 158.674 26.2805C157.696 24.4879 157.206 22.4196 157.205 20.0756C157.205 17.7048 157.69 15.6226 158.66 13.8288C159.582 12.0836 160.994 10.646 162.723 9.69271C164.458 8.72309 166.458 8.23828 168.722 8.23828C170.904 8.23828 172.855 8.70673 174.575 9.64363C176.273 10.5578 177.667 11.9479 178.587 13.6433C179.539 15.3668 180.014 17.3455 180.014 19.5792C180.012 20.3223 179.95 21.064 179.829 21.7972ZM173.995 17.9066C173.968 16.4183 173.43 15.2256 172.382 14.3287C171.334 13.4318 170.053 12.9834 168.541 12.9834C167.106 12.9834 165.899 13.4179 164.921 14.2869C163.943 15.1559 163.343 16.3625 163.121 17.9066H173.995Z" fill="white"/>
<path d="M190.003 0.918945V31.5275H184.211V0.918945H190.003Z" fill="white"/>
<path d="M201.502 0.918945V31.5275H195.715V0.918945H201.502Z" fill="white"/>
<path d="M210.936 30.8876C209.541 30.2871 208.324 29.3403 207.398 28.1369C206.548 27.0265 206.05 25.6862 205.971 24.2899H211.81C211.865 24.7253 212.009 25.1447 212.234 25.522C212.458 25.8992 212.758 26.2262 213.114 26.4825C213.871 27.0606 214.816 27.3497 215.948 27.3497C217.05 27.3497 217.912 27.1291 218.533 26.6879C219.155 26.2467 219.465 25.6819 219.464 24.9935C219.464 24.2481 219.085 23.6894 218.326 23.3173C217.567 22.9452 216.362 22.5355 214.71 22.0883C213.282 21.7645 211.879 21.3392 210.512 20.8156C209.425 20.3765 208.46 19.6811 207.7 18.7885C206.913 17.8783 206.52 16.6511 206.52 15.107C206.511 13.8627 206.892 12.647 207.611 11.6309C208.338 10.5837 209.386 9.75648 210.754 9.14926C212.122 8.54203 213.729 8.23903 215.574 8.24024C218.304 8.24024 220.486 8.92261 222.119 10.2874C223.751 11.6521 224.645 13.4871 224.8 15.7924H219.255C219.229 15.3709 219.114 14.9596 218.918 14.5856C218.722 14.2115 218.449 13.883 218.117 13.6216C217.441 13.0835 216.538 12.8144 215.408 12.8144C214.36 12.8144 213.553 13.0078 212.988 13.3944C212.719 13.5668 212.5 13.806 212.351 14.0887C212.202 14.3713 212.129 14.6877 212.139 15.007C212.139 15.7803 212.526 16.3663 213.299 16.765C214.072 17.1638 215.27 17.5729 216.892 17.9922C218.285 18.3232 219.653 18.7521 220.986 19.2758C222.069 19.7215 223.027 20.4241 223.778 21.3229C224.565 22.2464 224.972 23.4669 224.998 24.9844C225.016 26.2547 224.634 27.4984 223.908 28.5405C223.18 29.5889 222.132 30.4094 220.762 31.0021C219.393 31.5948 217.799 31.8978 215.983 31.9111C214.246 31.9359 212.525 31.5868 210.936 30.8876Z" fill="white"/>
</g>
<defs>
<clipPath id="clip0_0_6">
<rect width="224.983" height="41.375" fill="white" transform="translate(0.0078125 0.918945)"/>
</clipPath>
</defs>
</svg>
